SplineFontDB: 3.0
FontName: CaslonStM
FullName: Sorts Mill Caslon
FamilyName: Sorts Mill Caslon
Weight: Regular
Copyright: Created by trashman with FontForge 2.0 (http://fontforge.sf.net)
UComments: "Scan 12pt at 6400, cut 1100, scale 96%+AAoA-Print at 13pt to match the original size (with the extra 1 point for long descenders)." 
Version: 001.000
ItalicAngle: 0
UnderlinePosition: -100
UnderlineWidth: 50
Ascent: 800
Descent: 200
LayerCount: 3
Layer: 0 0 "Back"  1
Layer: 1 0 "Fore"  0
Layer: 2 0 "backup"  0
NeedsXUIDChange: 1
XUID: [1021 658 797806517 11018343]
OS2Version: 0
OS2_WeightWidthSlopeOnly: 0
OS2_UseTypoMetrics: 1
CreationTime: 1292401491
ModificationTime: 1292579542
OS2TypoAscent: 0
OS2TypoAOffset: 1
OS2TypoDescent: 0
OS2TypoDOffset: 1
OS2TypoLinegap: 0
OS2WinAscent: 0
OS2WinAOffset: 1
OS2WinDescent: 0
OS2WinDOffset: 1
HheadAscent: 0
HheadAOffset: 1
HheadDescent: 0
HheadDOffset: 1
OS2Vendor: 'PfEd'
MarkAttachClasses: 1
DEI: 91125
Encoding: UnicodeBmp
UnicodeInterp: none
NameList: Adobe Glyph List
DisplaySize: -48
AntiAlias: 1
FitToEm: 1
WinInfo: 80 10 4
BeginChars: 65536 63

StartChar: a
Encoding: 97 97 0
Width: 419
VWidth: 0
Flags: WO
HStem: -15 63<314.869 369.078> -8 49<112.553 186.765> 249 21G<68 102.5> 249 21G<68 102.5> 340 32<141.611 261>
VStem: 54 77<257.003 326.381> 56 51<47.147 125.494> 253 54<68.6506 180.993 196.195 288.443> 257 64<131.819 180.993 197.803 325.595>
LayerCount: 3
Fore
SplineSet
116 -8 m 0x49
 83 -8 56 16 56 64 c 0x4b
 56 138 118 164 226 194 c 0
 254 202 257 228 257 251 c 2
 257 266 l 2
 257 291 248 340 197 340 c 0
 157 340 134 325 131 307 c 0
 128 288 130 249 75 249 c 0
 61 249 54 266 54 279 c 0
 54 331 107 350 156 362 c 0
 183 368 220 372 238 372 c 0
 284 372 321 356 321 290 c 0x6c80
 321 258 307 147 307 131 c 0
 307 72 316 48 344 48 c 0
 371 48 389 83 389 83 c 1
 400 64 l 1
 400 64 381 -15 320 -15 c 0xa9
 274 -15 258 25 250 43 c 0
 245 55 246 51 232 42 c 0
 211 27 160 -8 116 -8 c 0x49
229 178 m 0
 152 153 107 130 107 83 c 0
 107 58 125 41 158 41 c 0
 186 41 215 56 240 74 c 0
 252 82 253 105 253 126 c 2
 253 156 l 2
 253 171 250 181 241 181 c 0
 238 181 234 180 229 178 c 0
EndSplineSet
EndChar

StartChar: b
Encoding: 98 98 1
Width: 450
VWidth: 0
Flags: HW
HStem: -17 27<179.354 283.351> 340 33<167.308 277.702>
VStem: 76 53<41.8614 324.836 338 544.781> 343 70<87.1149 273.497>
LayerCount: 3
Fore
SplineSet
129 72 m 2
 129 57 174 10 234 10 c 0
 302 10 343 63 343 167 c 0
 343 256 308 340 216 340 c 0
 169 340 129 320 129 297 c 2
 129 72 l 2
130 338 m 1
 179 369 232 373 244 373 c 0
 372 373 413 268 413 183 c 0
 413 79 343 -17 226 -17 c 0
 171 -17 124 23 120 23 c 0
 111 23 101 0 90 0 c 0
 76 0 76 16 76 25 c 0
 76 68 76 505 71 527 c 0
 68 539 42 553 23 565 c 0
 21 566 19 574 19 576 c 0
 19 589 21 591 24 592 c 0
 75 610 108 630 114 630 c 0
 119 630 133 618 133 618 c 1
 133 515 130 396 130 338 c 1
EndSplineSet
EndChar

StartChar: c
Encoding: 99 99 2
Width: 349
VWidth: 0
Flags: W
LayerCount: 3
Fore
SplineSet
198 346 m 0
 129 346 86 274 86 193 c 0
 86 117 119 35 216 35 c 0
 276 35 300 70 308 75 c 1
 319 61 l 1
 305 23 257 -16 194 -16 c 0
 80 -16 27 79 27 174 c 0
 28 304 110 383 212 383 c 0
 253 383 314 351 314 315 c 0
 314 305 309 282 287 282 c 0
 252 282 249 314 228 332 c 0
 217 341 208 346 198 346 c 0
EndSplineSet
Layer: 2
SplineSet
198 346 m 4
 129 346 86 274 86 193 c 4
 86 117 119 35 216 35 c 4
 272 35 300 70 306 70 c 4
 311 70 316 66 316 62 c 4
 312 26 255 -15 194 -15 c 4
 71 -15 27 79 27 174 c 4
 27 304 110 383 212 383 c 4
 253 383 314 351 314 315 c 4
 314 305 309 282 287 282 c 4
 252 282 249 314 228 332 c 4
 217 341 208 346 198 346 c 4
EndSplineSet
EndChar

StartChar: d
Encoding: 100 100 3
Width: 474
VWidth: 0
Flags: HW
HStem: -11 47<148.741 261.167> 358 34<143.485 284.233>
VStem: 21 59<115.527 280.837> 327 56<75.7949 327.722 370 578.917>
LayerCount: 3
Fore
SplineSet
21 184 m 0
 21 290 90 392 231 392 c 0
 255 392 317 375 327 370 c 1
 327 511 l 2
 327 572 326 570 279 591 c 0
 264 598 264 596 264 605 c 0
 264 619 264 620 272 622 c 0
 343 636 365 646 372 646 c 0
 373 646 389 642 389 628 c 0
 389 616 383 426 383 106 c 0
 383 83 384 45 408 45 c 0
 414 45 458 54 458 54 c 1
 459 25 l 1
 391 12 339 -11 331 -11 c 0
 321 -11 320 -6 320 1 c 2
 320 62 l 1
 298 31 246 -11 186 -11 c 0
 48 -11 21 113 21 184 c 0
80 207 m 0
 80 130 125 36 217 36 c 0
 271 36 327 71 327 136 c 2
 328 299 l 2
 328 304 295 358 217 358 c 0
 101 358 80 277 80 207 c 0
EndSplineSet
EndChar

StartChar: e
Encoding: 101 101 4
Width: 390
VWidth: 0
Flags: W
HStem: -15 55<153.12 283.018> 232 25<100.141 262.433> 351 29<143.68 241.307>
VStem: 26 56<109.604 230.486> 266 77<241 317.984>
LayerCount: 3
Fore
SplineSet
26 182 m 0
 26 286 87 380 197 380 c 0
 330 380 343 266 343 245 c 0
 343 237 343 234 331 234 c 0
 277 234 125 232 114 232 c 0
 93 232 82 227 82 187 c 0
 82 103 147 40 230 40 c 0
 299 40 348 104 348 104 c 1
 364 95 l 1
 358 76 301 -15 205 -15 c 0
 86 -15 26 73 26 182 c 0
185 351 m 0
 142 351 100 307 100 269 c 0
 100 259 110 257 134 257 c 0
 164 257 222 259 241 260 c 0
 264 261 266 273 266 287 c 0
 266 331 234 351 185 351 c 0
EndSplineSet
EndChar

StartChar: f
Encoding: 102 102 5
Width: 200
VWidth: 0
Flags: W
HStem: 112 120<53.7454 146.255>
VStem: 40 120<125.745 218.255>
LayerCount: 3
Fore
SplineSet
40 172 m 4
 40 205 67 232 100 232 c 4
 133 232 160 205 160 172 c 4
 160 139 133 112 100 112 c 4
 67 112 40 139 40 172 c 4
EndSplineSet
EndChar

StartChar: g
Encoding: 103 103 6
Width: 200
VWidth: 0
Flags: W
HStem: 112 120<53.7454 146.255>
VStem: 40 120<125.745 218.255>
LayerCount: 3
Fore
SplineSet
40 172 m 4
 40 205 67 232 100 232 c 4
 133 232 160 205 160 172 c 4
 160 139 133 112 100 112 c 4
 67 112 40 139 40 172 c 4
EndSplineSet
EndChar

StartChar: h
Encoding: 104 104 7
Width: 200
VWidth: 0
Flags: W
HStem: 112 120<53.7454 146.255>
VStem: 40 120<125.745 218.255>
LayerCount: 3
Fore
SplineSet
40 172 m 4
 40 205 67 232 100 232 c 4
 133 232 160 205 160 172 c 4
 160 139 133 112 100 112 c 4
 67 112 40 139 40 172 c 4
EndSplineSet
EndChar

StartChar: i
Encoding: 105 105 8
Width: 200
VWidth: 0
Flags: W
HStem: 112 120<53.7454 146.255>
VStem: 40 120<125.745 218.255>
LayerCount: 3
Fore
SplineSet
40 172 m 4
 40 205 67 232 100 232 c 4
 133 232 160 205 160 172 c 4
 160 139 133 112 100 112 c 4
 67 112 40 139 40 172 c 4
EndSplineSet
EndChar

StartChar: j
Encoding: 106 106 9
Width: 200
VWidth: 0
Flags: W
HStem: 112 120<53.7454 146.255>
VStem: 40 120<125.745 218.255>
LayerCount: 3
Fore
SplineSet
40 172 m 4
 40 205 67 232 100 232 c 4
 133 232 160 205 160 172 c 4
 160 139 133 112 100 112 c 4
 67 112 40 139 40 172 c 4
EndSplineSet
EndChar

StartChar: k
Encoding: 107 107 10
Width: 200
VWidth: 0
Flags: W
HStem: 112 120<53.7454 146.255>
VStem: 40 120<125.745 218.255>
LayerCount: 3
Fore
SplineSet
40 172 m 4
 40 205 67 232 100 232 c 4
 133 232 160 205 160 172 c 4
 160 139 133 112 100 112 c 4
 67 112 40 139 40 172 c 4
EndSplineSet
EndChar

StartChar: l
Encoding: 108 108 11
Width: 288
VWidth: 0
Flags: HW
HStem: 0 28<18 111 172 250> 630 20G<163.5 167.5>
VStem: 109 70<302.649 570.535> 112 60<28 570.535>
LayerCount: 3
Fore
SplineSet
250 0 m 1xd0
 23 0 l 1
 23 28 l 1
 111 28 l 1
 111 92 112 209 112 317 c 0xd0
 112 418 111 510 109 539 c 0
 108 556 110 561 98 571 c 0
 91 577 76 582 57 591 c 0
 55 592 55 596 55 601 c 0
 55 608 55 611 58 612 c 0
 118 632 161 650 166 650 c 0
 169 650 179 640 179 635 c 0xe0
 173 507 172 418 172 297 c 2
 172 28 l 1
 250 28 l 1
 250 0 l 1xd0
EndSplineSet
EndChar

StartChar: m
Encoding: 109 109 12
Width: 200
VWidth: 0
Flags: W
HStem: 112 120<53.7454 146.255>
VStem: 40 120<125.745 218.255>
LayerCount: 3
Fore
SplineSet
40 172 m 4
 40 205 67 232 100 232 c 4
 133 232 160 205 160 172 c 4
 160 139 133 112 100 112 c 4
 67 112 40 139 40 172 c 4
EndSplineSet
EndChar

StartChar: n
Encoding: 110 110 13
Width: 200
VWidth: 0
Flags: W
HStem: 112 120<53.7454 146.255>
VStem: 40 120<125.745 218.255>
LayerCount: 3
Fore
SplineSet
40 172 m 4
 40 205 67 232 100 232 c 4
 133 232 160 205 160 172 c 4
 160 139 133 112 100 112 c 4
 67 112 40 139 40 172 c 4
EndSplineSet
EndChar

StartChar: o
Encoding: 111 111 14
Width: 435
VWidth: 0
Flags: W
HStem: -15 34<154.091 263.257> 343 30<155.797 256.321>
VStem: 31 64<85.4226 271.23> 326 67<86.6379 272.625>
LayerCount: 3
Fore
SplineSet
393 180 m 0
 393 75 320 -15 208 -15 c 0
 96 -15 31 77 31 183 c 0
 31 289 114 373 216 373 c 0
 317 373 393 286 393 180 c 0
203 19 m 0
 296 19 326 106 326 187 c 0
 326 250 286 343 206 343 c 0
 132 343 95 267 95 191 c 0
 95 104 132 19 203 19 c 0
EndSplineSet
EndChar

StartChar: p
Encoding: 112 112 15
Width: 200
VWidth: 0
Flags: W
LayerCount: 3
Fore
SplineSet
40 172 m 4
 40 205 67 232 100 232 c 4
 133 232 160 205 160 172 c 4
 160 139 133 112 100 112 c 4
 67 112 40 139 40 172 c 4
EndSplineSet
EndChar

StartChar: q
Encoding: 113 113 16
Width: 200
VWidth: 0
Flags: W
LayerCount: 3
Fore
SplineSet
40 172 m 4
 40 205 67 232 100 232 c 4
 133 232 160 205 160 172 c 4
 160 139 133 112 100 112 c 4
 67 112 40 139 40 172 c 4
EndSplineSet
EndChar

StartChar: r
Encoding: 114 114 17
Width: 340
VWidth: 0
Flags: W
LayerCount: 3
Fore
SplineSet
140 259 m 0
 139 234 139 197 139 166 c 0
 139 113 140 59 141 28 c 1
 201 28 l 1
 201 0 l 1
 22 0 l 5
 22 28 l 5
 83 28 l 1
 82 118 83 178 81 278 c 0
 81 286 77 293 35 320 c 0
 32 322 32 327 32 331 c 0
 32 335 32 339 35 340 c 0
 70 352 126 387 128 387 c 0
 133 387 138 383 138 380 c 2
 138 290 l 1
 138 290 188 374 265 374 c 0
 293 374 331 362 331 327 c 0
 331 305 314 286 290 286 c 0
 262 286 238 311 205 311 c 0
 162 311 140 260 140 259 c 0
EndSplineSet
EndChar

StartChar: s
Encoding: 115 115 18
Width: 200
VWidth: 0
Flags: W
LayerCount: 3
Fore
SplineSet
40 172 m 4
 40 205 67 232 100 232 c 4
 133 232 160 205 160 172 c 4
 160 139 133 112 100 112 c 4
 67 112 40 139 40 172 c 4
EndSplineSet
EndChar

StartChar: t
Encoding: 116 116 19
Width: 298
VWidth: 0
Flags: W
LayerCount: 3
Fore
SplineSet
30 328 m 0
 30 330 30 332 30 334 c 0
 30 336 30 338 32 340 c 0
 85 391 116 451 136 483 c 0
 137 484 139 485 142 485 c 0
 148 485 157 482 156 478 c 0
 150 436 148 367 148 367 c 1
 148 367 256 370 261 370 c 0
 266 370 268 369 268 364 c 0
 268 359 267 351 263 340 c 0
 259 328 260 320 251 320 c 0
 229 320 152 321 141 321 c 1
 140 262 138 204 138 145 c 0
 138 93 146 21 204 21 c 0
 238 21 268 45 268 45 c 1
 275 25 l 1
 257 -1 219 -20 191 -20 c 0
 117 -20 77 21 77 84 c 0
 77 146 81 252 81 319 c 1
 40 319 l 2
 33 319 30 319 30 328 c 0
EndSplineSet
EndChar

StartChar: u
Encoding: 117 117 20
Width: 200
VWidth: 0
Flags: W
HStem: 112 120<53.7454 146.255>
VStem: 40 120<125.745 218.255>
LayerCount: 3
Fore
SplineSet
40 172 m 4
 40 205 67 232 100 232 c 4
 133 232 160 205 160 172 c 4
 160 139 133 112 100 112 c 4
 67 112 40 139 40 172 c 4
EndSplineSet
EndChar

StartChar: v
Encoding: 118 118 21
Width: 200
VWidth: 0
Flags: W
HStem: 112 120<53.7454 146.255>
VStem: 40 120<125.745 218.255>
LayerCount: 3
Fore
SplineSet
40 172 m 4
 40 205 67 232 100 232 c 4
 133 232 160 205 160 172 c 4
 160 139 133 112 100 112 c 4
 67 112 40 139 40 172 c 4
EndSplineSet
EndChar

StartChar: w
Encoding: 119 119 22
Width: 200
VWidth: 0
Flags: W
HStem: 112 120<53.7454 146.255>
VStem: 40 120<125.745 218.255>
LayerCount: 3
Fore
SplineSet
40 172 m 4
 40 205 67 232 100 232 c 4
 133 232 160 205 160 172 c 4
 160 139 133 112 100 112 c 4
 67 112 40 139 40 172 c 4
EndSplineSet
EndChar

StartChar: x
Encoding: 120 120 23
Width: 200
VWidth: 0
Flags: W
HStem: 112 120<53.7454 146.255>
VStem: 40 120<125.745 218.255>
LayerCount: 3
Fore
SplineSet
40 172 m 4
 40 205 67 232 100 232 c 4
 133 232 160 205 160 172 c 4
 160 139 133 112 100 112 c 4
 67 112 40 139 40 172 c 4
EndSplineSet
EndChar

StartChar: y
Encoding: 121 121 24
Width: 200
VWidth: 0
Flags: W
HStem: 112 120<53.7454 146.255>
VStem: 40 120<125.745 218.255>
LayerCount: 3
Fore
SplineSet
40 172 m 4
 40 205 67 232 100 232 c 4
 133 232 160 205 160 172 c 4
 160 139 133 112 100 112 c 4
 67 112 40 139 40 172 c 4
EndSplineSet
EndChar

StartChar: z
Encoding: 122 122 25
Width: 200
VWidth: 0
Flags: W
HStem: 112 120<53.7454 146.255>
VStem: 40 120<125.745 218.255>
LayerCount: 3
Fore
SplineSet
40 172 m 4
 40 205 67 232 100 232 c 4
 133 232 160 205 160 172 c 4
 160 139 133 112 100 112 c 4
 67 112 40 139 40 172 c 4
EndSplineSet
EndChar

StartChar: zero
Encoding: 48 48 52
Width: 200
VWidth: 0
Flags: W
HStem: 112 120<53.7454 146.255>
VStem: 40 120<125.745 218.255>
LayerCount: 3
Fore
SplineSet
40 172 m 0
 40 205 67 232 100 232 c 0
 133 232 160 205 160 172 c 0
 160 139 133 112 100 112 c 0
 67 112 40 139 40 172 c 0
EndSplineSet
EndChar

StartChar: one
Encoding: 49 49 53
Width: 200
VWidth: 0
Flags: W
HStem: 112 120<53.7454 146.255>
VStem: 40 120<125.745 218.255>
LayerCount: 3
Fore
SplineSet
40 172 m 0
 40 205 67 232 100 232 c 0
 133 232 160 205 160 172 c 0
 160 139 133 112 100 112 c 0
 67 112 40 139 40 172 c 0
EndSplineSet
EndChar

StartChar: two
Encoding: 50 50 54
Width: 200
VWidth: 0
Flags: W
HStem: 112 120<53.7454 146.255>
VStem: 40 120<125.745 218.255>
LayerCount: 3
Fore
SplineSet
40 172 m 0
 40 205 67 232 100 232 c 0
 133 232 160 205 160 172 c 0
 160 139 133 112 100 112 c 0
 67 112 40 139 40 172 c 0
EndSplineSet
EndChar

StartChar: three
Encoding: 51 51 55
Width: 200
VWidth: 0
Flags: W
HStem: 112 120<53.7454 146.255>
VStem: 40 120<125.745 218.255>
LayerCount: 3
Fore
SplineSet
40 172 m 0
 40 205 67 232 100 232 c 0
 133 232 160 205 160 172 c 0
 160 139 133 112 100 112 c 0
 67 112 40 139 40 172 c 0
EndSplineSet
EndChar

StartChar: four
Encoding: 52 52 56
Width: 200
VWidth: 0
Flags: W
HStem: 112 120<53.7454 146.255>
VStem: 40 120<125.745 218.255>
LayerCount: 3
Fore
SplineSet
40 172 m 0
 40 205 67 232 100 232 c 0
 133 232 160 205 160 172 c 0
 160 139 133 112 100 112 c 0
 67 112 40 139 40 172 c 0
EndSplineSet
EndChar

StartChar: five
Encoding: 53 53 57
Width: 200
VWidth: 0
Flags: W
HStem: 112 120<53.7454 146.255>
VStem: 40 120<125.745 218.255>
LayerCount: 3
Fore
SplineSet
40 172 m 0
 40 205 67 232 100 232 c 0
 133 232 160 205 160 172 c 0
 160 139 133 112 100 112 c 0
 67 112 40 139 40 172 c 0
EndSplineSet
EndChar

StartChar: six
Encoding: 54 54 58
Width: 200
VWidth: 0
Flags: W
HStem: 112 120<53.7454 146.255>
VStem: 40 120<125.745 218.255>
LayerCount: 3
Fore
SplineSet
40 172 m 0
 40 205 67 232 100 232 c 0
 133 232 160 205 160 172 c 0
 160 139 133 112 100 112 c 0
 67 112 40 139 40 172 c 0
EndSplineSet
EndChar

StartChar: seven
Encoding: 55 55 59
Width: 200
VWidth: 0
Flags: W
HStem: 112 120<53.7454 146.255>
VStem: 40 120<125.745 218.255>
LayerCount: 3
Fore
SplineSet
40 172 m 0
 40 205 67 232 100 232 c 0
 133 232 160 205 160 172 c 0
 160 139 133 112 100 112 c 0
 67 112 40 139 40 172 c 0
EndSplineSet
EndChar

StartChar: eight
Encoding: 56 56 60
Width: 200
VWidth: 0
Flags: W
HStem: 112 120<53.7454 146.255>
VStem: 40 120<125.745 218.255>
LayerCount: 3
Fore
SplineSet
40 172 m 0
 40 205 67 232 100 232 c 0
 133 232 160 205 160 172 c 0
 160 139 133 112 100 112 c 0
 67 112 40 139 40 172 c 0
EndSplineSet
EndChar

StartChar: nine
Encoding: 57 57 61
Width: 200
VWidth: 0
Flags: W
HStem: 112 120<53.7454 146.255>
VStem: 40 120<125.745 218.255>
LayerCount: 3
Fore
SplineSet
40 172 m 0
 40 205 67 232 100 232 c 0
 133 232 160 205 160 172 c 0
 160 139 133 112 100 112 c 0
 67 112 40 139 40 172 c 0
EndSplineSet
EndChar

